<svg width="301" height="228" viewBox="0 0 301 228" fill="none" xmlns="http://www.w3.org/2000/svg">
<rect x="3" y="52" width="251" height="8" fill="black"/>
<rect x="129" y="111" width="51" height="4" transform="rotate(-90 129 111)" fill="black"/>
<rect x="72" y="79" width="27" height="4" transform="rotate(-90 72 79)" fill="black"/>
<path d="M40.3125 124.5C40.3125 117.083 43.7708 111.646 50.6875 108.188C57.6458 104.729 68.0208 102.708 81.8125 102.125V97.875C81.8125 93.9583 80.9167 90.5833 79.125 87.75C77.375 84.875 73.875 83.4375 68.625 83.4375C65.2917 83.4375 62.625 83.7708 60.625 84.4375C58.625 85.0625 56.7917 85.9167 55.125 87C53.5 88.0417 51.9375 89.3958 50.4375 91.0625C49.3125 92.3125 48.25 92.375 47.25 91.25L44 87.5C43.0833 86.4583 43.3958 85.2083 44.9375 83.75C47.1458 81.6667 49.2917 80.1042 51.375 79.0625C53.4583 78.0208 56.0417 77.1458 59.125 76.4375C62.25 75.6875 65.4167 75.3125 68.625 75.3125C77.3333 75.3125 83.5417 77.5625 87.25 82.0625C90.9583 86.5208 92.8125 92.6458 92.8125 100.438V139.188C92.8125 141.062 91.875 142 90 142H84.375C82.75 142 81.9375 141.062 81.9375 139.188V136.125H81.8125C78.5208 138.708 75.2917 140.521 72.125 141.562C69 142.562 65.5 143.062 61.625 143.062C54.7917 143.062 49.5208 141.438 45.8125 138.188C42.1458 134.896 40.3125 130.333 40.3125 124.5ZM51.6875 124.75C51.6875 127.333 52.2292 129.417 53.3125 131C54.3958 132.542 55.8958 133.542 57.8125 134C59.7292 134.417 61.7292 134.625 63.8125 134.625C67.0208 134.625 70.0625 134.312 72.9375 133.688C75.8125 133.062 78.7708 131.417 81.8125 128.75V110.312C73.3958 110.938 67.3958 111.708 63.8125 112.625C60.2292 113.5 57.3125 115.042 55.0625 117.25C52.8125 119.417 51.6875 121.917 51.6875 124.75Z" fill="black"/>
<path d="M113.688 173C111.812 173 110.875 172.062 110.875 170.188V110.188C110.875 108.312 111.812 107.375 113.688 107.375H118.938C120.812 107.375 121.75 108.312 121.75 110.188V117.688H122C124 113.938 126.354 111.104 129.062 109.188C131.771 107.271 135.146 106.312 139.188 106.312C141.854 106.312 143.729 106.542 144.812 107C145.771 107.375 146.125 108 145.875 108.875L144.438 114C144.229 114.75 143.688 115.042 142.812 114.875C141.354 114.583 139.979 114.438 138.688 114.438C133.812 114.438 129.792 116.646 126.625 121.062C123.458 125.438 121.875 131.417 121.875 139V170.188C121.875 172.062 120.938 173 119.062 173H113.688Z" fill="black"/>
<path d="M177.688 71.625C175.812 71.625 174.875 70.8958 174.875 69.4375V65.5625C174.875 64.1042 175.812 63.375 177.688 63.375H185.062V57.75C185.062 56.9167 185.271 56.125 185.688 55.375L190.062 47.4375C190.854 45.9792 191.5 45.25 192 45.25H194.188C195.438 45.25 196.062 45.9792 196.062 47.4375V63.375H209.375C211.25 63.375 212.188 64.1042 212.188 65.5625V69.4375C212.188 70.8958 211.25 71.625 209.375 71.625H196.062V111.438C196.062 115.812 196.708 118.667 198 120C199.333 121.292 200.917 121.938 202.75 121.938C204.167 121.938 205.854 121.521 207.812 120.688C209.812 119.854 211.188 119.146 211.938 118.562C212.688 117.979 213.271 118.167 213.688 119.125L215.75 123.938C216.083 124.771 215.833 125.438 215 125.938C213.375 126.896 211 127.833 207.875 128.75C204.75 129.625 201.625 130.062 198.5 130.062C194.167 130.062 190.833 128.5 188.5 125.375C186.208 122.25 185.062 117.833 185.062 112.125V71.625H177.688Z" fill="black"/>
<rect x="254" y="102" width="50" height="4" transform="rotate(-90 254 102)" fill="black"/>
<rect x="50" y="52" width="251" height="8" fill="black"/>
<path d="M234.688 166C232.812 166 231.875 165.062 231.875 163.188V76.5625C231.875 74.6875 232.812 73.75 234.688 73.75H240.062C241.938 73.75 242.875 74.6875 242.875 76.5625V104.438C242.875 105.688 242.833 106.938 242.75 108.188H243C245.708 105.188 248.625 102.958 251.75 101.5C254.875 100.042 258.771 99.3125 263.438 99.3125C271.021 99.3125 276.458 101.458 279.75 105.75C283.083 110 284.75 115.833 284.75 123.25V163.188C284.75 165.062 283.812 166 281.938 166H276.562C274.688 166 273.75 165.062 273.75 163.188V126.25C273.75 118.083 272.396 112.917 269.688 110.75C266.979 108.542 263.542 107.438 259.375 107.438C253.958 107.438 249.854 109.062 247.062 112.312C244.271 115.521 242.875 121.042 242.875 128.875V163.188C242.875 165.062 241.938 166 240.062 166H234.688Z" fill="black"/>
</svg>
